<svg width="23" height="23" viewBox="0 0 23 23" fill="none" xmlns="http://www.w3.org/2000/svg">
<path d="M6.47928 0.200212C4.98096 -0.178801 3.4106 -0.0180074 2.18025 0.668236C0.926852 1.36596 0.0480298 2.6035 0.00480904 4.25881C-0.0614628 6.84586 0.539306 10.3173 2.92509 14.3917C5.28062 18.4158 7.88107 20.8277 10.0392 22.2605C11.4021 23.1664 12.9076 23.1908 14.1942 22.6007C15.462 22.0193 16.4906 20.8579 17.0251 19.4179C17.1582 19.0598 17.2116 18.6771 17.1818 18.2964C17.1519 17.9157 17.0395 17.5459 16.8523 17.2127L15.4778 14.7692C15.0553 14.0172 14.3754 13.4418 13.5622 13.1481C12.7491 12.8545 11.857 12.8622 11.0491 13.1699L10.0897 13.536C9.62431 13.7126 9.19642 13.6308 8.95438 13.3925C8.14039 12.5957 7.55835 11.5146 7.29471 10.3489C7.21115 9.98134 7.38115 9.54777 7.78742 9.24197L8.65328 8.59018C9.35327 8.06382 9.83652 7.30105 10.0124 6.44495C10.1882 5.58884 10.0446 4.69821 9.60846 3.9401L8.20811 1.50666C8.02259 1.18449 7.77393 0.902804 7.47692 0.678363C7.17992 0.453921 6.84064 0.291312 6.47928 0.200212ZM1.4455 4.29757C1.47431 3.18638 2.03907 2.39246 2.88331 1.92156C3.75061 1.43775 4.93486 1.28988 6.12487 1.59136C6.29924 1.63525 6.46296 1.71367 6.60627 1.82195C6.74958 1.93023 6.86955 2.06615 6.95903 2.22162L8.35794 4.65505C8.61959 5.10973 8.70585 5.64389 8.60056 6.15742C8.49526 6.67094 8.20564 7.12857 7.78598 7.44453L6.92013 8.09632C6.17097 8.6591 5.65232 9.62386 5.88859 10.6647C6.20843 12.0745 6.91581 13.4111 7.94446 14.4175C8.6965 15.1526 9.76837 15.1956 10.604 14.8769L11.5635 14.5108C12.0483 14.3259 12.5836 14.3211 13.0717 14.4972C13.5598 14.6733 13.9679 15.0185 14.2216 15.4698L15.5945 17.9148C15.7674 18.222 15.7962 18.5895 15.6738 18.9197C15.256 20.0467 14.4708 20.8923 13.592 21.2957C12.7319 21.6905 11.7594 21.6791 10.8388 21.066C8.86362 19.7538 6.41589 17.5042 4.16841 13.6681C1.91949 9.82054 1.38643 6.61329 1.44694 4.29757H1.4455ZM15.4231 0.122687C15.2561 0.0301624 15.0591 0.00752644 14.8754 0.0597585C14.6916 0.111991 14.5363 0.234812 14.4434 0.401204C14.3506 0.567596 14.3279 0.763928 14.3803 0.94701C14.4327 1.13009 14.5559 1.28493 14.7229 1.37745L15.2761 1.68468C17.0044 2.64141 18.4745 4.0009 19.5609 5.64695C20.6472 7.29301 21.3175 9.1767 21.5143 11.137L21.5604 11.5893C21.5659 11.6861 21.5909 11.7808 21.6341 11.8676C21.6773 11.9545 21.7376 12.0318 21.8116 12.0948C21.8855 12.1578 21.9715 12.2052 22.0644 12.2342C22.1572 12.2631 22.255 12.2731 22.3518 12.2634C22.4486 12.2537 22.5424 12.2245 22.6276 12.1777C22.7127 12.1309 22.7875 12.0673 22.8474 11.9909C22.9073 11.9145 22.951 11.8268 22.9759 11.7331C23.0009 11.6394 23.0065 11.5416 22.9925 11.4457L22.9478 10.9949C22.728 8.80351 21.9789 6.69775 20.7646 4.85765C19.5503 3.01755 17.9069 1.49786 15.9749 0.428482L15.4231 0.122687ZM13.7346 3.97024C13.833 3.80711 13.9924 3.68961 14.1777 3.64357C14.3631 3.59753 14.5592 3.62673 14.7229 3.72475L14.9016 3.83099C16.0645 4.52577 17.0621 5.46393 17.8255 6.58062C18.5889 7.6973 19.0999 8.96586 19.323 10.2986L19.3864 10.6819C19.4046 10.7759 19.4036 10.8726 19.3837 10.9662C19.3638 11.0599 19.3253 11.1486 19.2705 11.2272C19.2156 11.3058 19.1456 11.3727 19.0644 11.4239C18.9833 11.4751 18.8927 11.5096 18.7979 11.5254C18.7032 11.5412 18.6062 11.538 18.5128 11.5159C18.4193 11.4938 18.3312 11.4533 18.2537 11.3967C18.1762 11.3402 18.1108 11.2688 18.0614 11.1868C18.0119 11.1047 17.9795 11.0136 17.9659 10.9188L17.9011 10.5355C17.7126 9.40799 17.2806 8.33472 16.6352 7.38983C15.9897 6.44494 15.146 5.65097 14.1625 5.06278L13.9838 4.9551C13.9027 4.90666 13.8319 4.84276 13.7755 4.76704C13.7191 4.69133 13.6782 4.60529 13.6552 4.51383C13.6322 4.42237 13.6275 4.32729 13.6414 4.23402C13.6552 4.14075 13.686 4.05112 13.7346 3.97024Z" fill="white"/>
</svg>
