<svg width="20" height="15" viewBox="0 0 20 15" fill="none" xmlns="http://www.w3.org/2000/svg">
<path d="M18.75 0.00012207H1.25C0.918479 0.00012207 0.600537 0.131818 0.366116 0.366239C0.131696 0.600659 0 0.918601 0 1.25012V13.7501C0 14.0816 0.131696 14.3996 0.366116 14.634C0.600537 14.8684 0.918479 15.0001 1.25 15.0001H18.75C19.0815 15.0001 19.3995 14.8684 19.6339 14.634C19.8683 14.3996 20 14.0816 20 13.7501V1.25012C20 0.918601 19.8683 0.600659 19.6339 0.366239C19.3995 0.131818 19.0815 0.00012207 18.75 0.00012207ZM17.7875 13.7501H2.2875L6.6625 9.22512L5.7625 8.35637L1.25 13.0251V2.20012L9.01875 9.93137C9.25295 10.1642 9.56977 10.2949 9.9 10.2949C10.2302 10.2949 10.547 10.1642 10.7812 9.93137L18.75 2.00637V12.9439L14.15 8.34387L13.2687 9.22512L17.7875 13.7501ZM2.06875 1.25012H17.7375L9.9 9.04387L2.06875 1.25012Z" fill="white"/>
</svg>
