<svg width="32" height="31" viewBox="0 0 32 31" fill="none" xmlns="http://www.w3.org/2000/svg">
<path d="M16.0001 6.64285C14.9052 6.64285 13.8349 6.96752 12.9246 7.57579C12.0143 8.18406 11.3047 9.04862 10.8857 10.0601C10.4668 11.0717 10.3571 12.1847 10.5707 13.2585C10.7843 14.3324 11.3115 15.3187 12.0857 16.0929C12.8599 16.8671 13.8463 17.3943 14.9201 17.6079C15.9939 17.8215 17.107 17.7119 18.1185 17.2929C19.13 16.8739 19.9946 16.1644 20.6028 15.254C21.2111 14.3437 21.5358 13.2734 21.5358 12.1786C21.5358 10.7104 20.9526 9.30237 19.9144 8.26423C18.8763 7.22608 17.4682 6.64285 16.0001 6.64285Z" fill="white"/>
<path d="M16 0C12.9344 0 9.93763 0.909059 7.38867 2.61222C4.83971 4.31538 2.85303 6.73615 1.67987 9.56841C0.506716 12.4007 0.199764 15.5172 0.797835 18.5239C1.39591 21.5306 2.87214 24.2924 5.03985 26.4601C7.20756 28.6279 9.9694 30.1041 12.9761 30.7022C15.9828 31.3002 19.0993 30.9933 21.9316 29.8201C24.7639 28.647 27.1846 26.6603 28.8878 24.1113C30.5909 21.5624 31.5 18.5656 31.5 15.5C31.4953 11.3906 29.8608 7.45082 26.955 4.54502C24.0492 1.63922 20.1094 0.00468844 16 0ZM24.8483 25.3824C24.8262 23.9301 24.2346 22.5447 23.2008 21.5246C22.167 20.5045 20.7738 19.9313 19.3214 19.9286H12.6786C11.2262 19.9313 9.83304 20.5045 8.79925 21.5246C7.76545 22.5447 7.17379 23.9301 7.15172 25.3824C5.14399 23.5896 3.72814 21.2293 3.09164 18.614C2.45515 15.9987 2.62805 13.2518 3.58743 10.7369C4.54681 8.22206 6.24743 6.05792 8.4641 4.53105C10.6808 3.00419 13.3089 2.18664 16.0006 2.18664C18.6922 2.18664 21.3204 3.00419 23.537 4.53105C25.7537 6.05792 27.4543 8.22206 28.4137 10.7369C29.3731 13.2518 29.546 15.9987 28.9095 18.614C28.273 21.2293 26.8571 23.5896 24.8494 25.3824H24.8483Z" fill="white"/>
</svg>
